<svg width="270" height="301" viewBox="0 0 270 301" fill="none" xmlns="http://www.w3.org/2000/svg">
<g clip-path="url(#clip0_148_339)">
<path d="M96.6784 0.33787C74.6489 2.64144 54.7364 16.4322 44.7954 36.2429C32.1239 61.4593 37.0329 92.1429 56.8841 111.954C61.7011 116.745 67.3159 120.922 72.8079 123.779L75.4773 125.161L75.4159 129.737L75.3239 134.283L69.4943 135.757C60.7807 137.969 54.9204 140.119 48.2625 143.589C36.9409 149.486 27.8591 157.38 20.6489 167.577C10.6159 181.767 4.51022 199.889 1.87158 223.293C0.767039 233.06 0.490902 239.08 0.46022 252.932V266.446L1.31931 268.228C8.16136 282.172 45.4091 291.233 108.307 294.243C111.927 294.427 120.917 294.642 128.25 294.704C139.817 294.857 141.443 294.796 140.523 294.427C136.687 292.922 133.558 290.588 131.533 287.701C128.986 284.107 114.658 258.829 113.922 256.679C112.387 252.103 112.786 246.881 114.995 242.336C116.468 239.326 119.812 235.916 123.095 234.074L125.427 232.753V226.395V220.068L122.819 218.532C119.414 216.566 116.407 213.403 114.965 210.331C113.4 207.076 113.093 205.724 113.093 201.946C113.093 196.909 113.461 196.111 122.727 179.955C127.145 172.276 131.073 165.581 131.472 165.089C135.583 159.591 142.456 156.674 149.022 157.595C151.844 157.994 154.36 158.885 157.214 160.574L159.331 161.803L161.386 160.451C162.522 159.745 164.884 158.363 166.694 157.411L169.947 155.691L170.039 153.203L170.131 150.715L165.989 147.951C161.54 145.002 153.256 140.794 148.408 138.982C144.726 137.631 138.958 135.972 134.847 135.051L131.778 134.375L131.686 129.768L131.625 125.161L133.987 123.932C143.437 118.987 152.182 111.094 158.349 101.91C163.565 94.1393 167.185 84.8022 168.627 75.2193C169.364 70.3972 169.364 61.3057 168.627 56.5143C165.283 34.5843 151.998 16.3707 132.392 6.75716C121.377 1.35144 108.736 -0.921416 96.6784 0.33787Z" fill="#444444"/>
<path d="M183.078 151.944C182.956 152.036 182.864 155.906 182.864 160.513V168.898L181.115 169.389C172.432 171.816 163.166 177.099 156.753 183.272L155.342 184.624L148.163 180.477C144.235 178.174 140.922 176.3 140.83 176.3C140.492 176.331 126.072 201.793 126.225 202.069C126.348 202.223 129.6 204.189 133.497 206.431C140.247 210.301 140.584 210.516 140.4 211.284C138.805 218.471 138.62 219.699 138.467 224.675C138.283 230.48 138.559 233.521 139.817 238.742C140.247 240.585 140.461 242.182 140.339 242.336C140.185 242.489 136.964 244.394 133.159 246.574C129.355 248.786 126.256 250.782 126.256 250.997C126.256 251.519 140.584 276.429 140.891 276.429C141.014 276.429 144.327 274.586 148.255 272.313L155.403 268.197L157.398 270.101C163.411 275.753 171.88 280.636 179.918 283.063L182.864 283.923V292.461V301L197.836 300.939L212.778 300.846L212.87 292.4L212.932 283.954L215.448 283.186C223.732 280.698 232.384 275.784 238.398 270.071L240.423 268.197L247.449 272.282C251.345 274.555 254.659 276.398 254.813 276.398C255.211 276.429 269.816 250.966 269.57 250.69C269.448 250.598 266.226 248.663 262.391 246.451C254.444 241.844 255.119 242.735 256.132 237.882C257.911 229.436 257.881 223.17 256.009 214.447C255.518 212.236 255.303 210.546 255.457 210.424C255.61 210.27 258.709 208.458 262.33 206.369C265.95 204.311 269.11 202.438 269.325 202.254C269.663 201.946 268.313 199.459 262.483 189.323C258.494 182.412 255.119 176.638 254.997 176.515C254.874 176.392 251.53 178.143 247.602 180.416L240.453 184.562L237.999 182.381C231.372 176.546 225.327 173.014 216.92 170.157L212.778 168.744L212.686 160.236L212.625 151.729H197.959C189.89 151.729 183.17 151.821 183.078 151.944ZM206.213 191.442C217.043 194.237 225.389 200.933 230.083 210.516C237.907 226.518 232.998 245.622 218.424 255.942C215.54 257.969 210.569 260.273 206.949 261.256C202.838 262.331 196.088 262.607 191.792 261.87C178.691 259.566 167.799 250.168 163.688 237.575C160.834 228.791 161.601 218.471 165.774 210.239C168.413 204.956 173.751 199.059 178.63 196.019C182.802 193.439 187.957 191.534 192.897 190.736C196.088 190.244 202.899 190.582 206.213 191.442Z" fill="#444444"/>
</g>
<defs>
<clipPath id="clip0_148_339">
<rect width="270" height="301" fill="white"/>
</clipPath>
</defs>
</svg>
