<svg width="140" height="156" viewBox="0 0 140 156" fill="none" xmlns="http://www.w3.org/2000/svg">
<g clip-path="url(#clip0_148_88)">
<path d="M50.1296 0.175095C38.7068 1.36897 28.3818 8.51632 23.2273 18.7837C16.6568 31.8526 19.2023 47.7551 29.4955 58.0224C31.9932 60.5057 34.9046 62.6706 37.7523 64.151L39.1364 64.8673L39.1046 67.2392L39.0568 69.5951L36.0341 70.3592C31.5159 71.5053 28.4773 72.6196 25.025 74.4184C19.1546 77.4747 14.4455 81.5657 10.7068 86.8506C5.50456 94.2049 2.33865 103.597 0.970466 115.727C0.397738 120.789 0.254557 123.909 0.238647 131.088V138.092L0.684102 139.015C4.23183 146.242 23.5455 150.938 56.1591 152.498C58.0364 152.593 62.6977 152.705 66.5 152.737C72.4977 152.816 73.3409 152.784 72.8636 152.593C70.875 151.813 69.2523 150.604 68.2023 149.107C66.8818 147.245 59.4523 134.144 59.0705 133.03C58.275 130.658 58.4818 127.952 59.6273 125.596C60.3909 124.036 62.125 122.269 63.8273 121.314L65.0364 120.629V117.334V114.055L63.6841 113.259C61.9182 112.24 60.3591 110.601 59.6114 109.009C58.8 107.322 58.6409 106.621 58.6409 104.663C58.6409 102.053 58.8318 101.639 63.6364 93.2657C65.9273 89.2861 67.9636 85.8159 68.1705 85.5612C70.3023 82.7118 73.8659 81.1996 77.2705 81.6771C78.7341 81.8841 80.0386 82.3457 81.5182 83.2212L82.6159 83.858L83.6818 83.1575C84.2705 82.7914 85.4955 82.0751 86.4341 81.5816L88.1205 80.6902L88.1682 79.4008L88.2159 78.1114L86.0682 76.6788C83.7614 75.1506 79.4659 72.9698 76.9523 72.0306C75.0432 71.3302 72.0523 70.4706 69.9205 69.9931L68.3296 69.6429L68.2818 67.2551L68.25 64.8673L69.475 64.2306C74.375 61.6678 78.9091 57.5767 82.1068 52.8171C84.8114 48.7898 86.6886 43.9506 87.4364 38.9841C87.8182 36.4849 87.8182 31.7731 87.4364 29.2898C85.7023 17.9241 78.8136 8.48448 68.6477 3.50203C62.9364 0.700401 56.3818 -0.477559 50.1296 0.175095Z" fill="#BD2024"/>
<path d="M94.9296 78.7482C94.8659 78.7959 94.8182 80.8016 94.8182 83.1894V87.5351L93.9114 87.7898C89.4091 89.0474 84.6046 91.7853 81.2796 94.9849L80.5478 95.6853L76.825 93.5363C74.7887 92.3425 73.0705 91.3714 73.0228 91.3714C72.8478 91.3873 65.3705 104.584 65.45 104.727C65.5137 104.807 67.2 105.825 69.2205 106.987C72.7205 108.993 72.8955 109.104 72.8 109.502C71.9728 113.227 71.8773 113.864 71.7978 116.443C71.7023 119.451 71.8455 121.027 72.4978 123.733C72.7205 124.689 72.8319 125.516 72.7682 125.596C72.6887 125.676 71.0182 126.662 69.0455 127.793C67.0728 128.939 65.4659 129.973 65.4659 130.085C65.4659 130.356 72.8955 143.265 73.0546 143.265C73.1182 143.265 74.8364 142.31 76.8728 141.132L80.5796 138.999L81.6137 139.986C84.7319 142.915 89.1228 145.446 93.2909 146.704L94.8182 147.149V151.575V156L102.582 155.968L110.33 155.92L110.377 151.543L110.409 147.165L111.714 146.767C116.009 145.478 120.495 142.931 123.614 139.97L124.664 138.999L128.307 141.116C130.327 142.294 132.045 143.249 132.125 143.249C132.332 143.265 139.905 130.069 139.777 129.926C139.714 129.878 138.043 128.875 136.055 127.729C131.934 125.341 132.284 125.803 132.809 123.288C133.732 118.91 133.716 115.663 132.745 111.142C132.491 109.996 132.38 109.12 132.459 109.057C132.539 108.977 134.145 108.038 136.023 106.956C137.9 105.889 139.539 104.918 139.65 104.822C139.825 104.663 139.125 103.374 136.102 98.1208C134.034 94.5392 132.284 91.5465 132.22 91.4829C132.157 91.4192 130.423 92.3265 128.386 93.5045L124.68 95.6535L123.407 94.5233C119.97 91.4988 116.836 89.6682 112.477 88.1878L110.33 87.4555L110.282 83.0461L110.25 78.6367H102.645C98.4614 78.6367 94.9773 78.6845 94.9296 78.7482ZM106.925 99.2192C112.541 100.668 116.868 104.138 119.302 109.104C123.359 117.398 120.814 127.299 113.257 132.648C111.761 133.698 109.184 134.892 107.307 135.402C105.175 135.959 101.675 136.102 99.4478 135.72C92.6546 134.526 87.0069 129.655 84.875 123.129C83.3955 118.576 83.7932 113.227 85.9569 108.961C87.325 106.223 90.0932 103.167 92.6228 101.591C94.7864 100.254 97.4591 99.2669 100.02 98.8531C101.675 98.5984 105.207 98.7735 106.925 99.2192Z" fill="#BD2024"/>
</g>
<defs>
<clipPath id="clip0_148_88">
<rect width="140" height="156" fill="white"/>
</clipPath>
</defs>
</svg>
